<svg width="164" height="48" viewBox="0 0 164 48" fill="none" xmlns="http://www.w3.org/2000/svg">
<path d="M40.0149 19.9168C39.3114 19.9168 38.608 19.565 38.0804 19.0374C38.0804 19.0374 38.0804 19.0374 37.9045 18.8616L23.1318 6.19926C22.0766 5.14406 20.318 5.14406 19.2628 6.19926L4.49009 18.8616C3.4349 19.7409 1.67624 19.7409 0.62105 18.5098C-0.258277 17.4546 -0.258276 15.696 0.972782 14.6408L15.7455 1.97849C18.9111 -0.659495 23.4836 -0.659495 26.6491 1.97849L41.4218 14.6408C41.5977 14.6408 41.7736 14.9925 41.9494 15.1684C43.0046 16.2236 43.0046 17.9822 41.9494 19.0374C41.4218 19.565 40.7184 19.7409 40.0149 19.7409" fill="#262727"/>
<path d="M21.3731 23.2582C16.0972 23.2582 11.8764 27.479 11.8764 32.7549C11.8764 38.0309 16.0972 42.2517 21.3731 42.2517C26.6491 42.2517 30.8699 38.0309 30.8699 32.7549C30.8699 27.479 26.6491 23.2582 21.3731 23.2582ZM21.3731 47.5276C13.1074 47.5276 6.42456 40.8447 6.42456 32.5791C6.42456 24.3134 13.1074 17.6305 21.3731 17.6305C29.6388 17.6305 36.3217 24.3134 36.3217 32.5791C36.3217 40.8447 29.6388 47.5276 21.3731 47.5276Z" fill="#262727"/>
<path d="M54.0841 23.6099C51.622 26.072 50.2151 29.2376 50.2151 32.9308C50.2151 36.624 51.4462 39.7895 54.0841 42.2517C56.5463 44.7138 59.7118 46.1207 63.405 46.1207C67.0982 46.1207 70.0879 44.8896 72.7259 42.2517C75.3639 39.6137 76.4191 36.624 76.4191 32.9308C76.4191 29.2376 75.188 26.072 72.7259 23.6099C70.2638 21.1478 67.0982 19.7409 63.405 19.7409C59.7118 19.7409 56.7221 20.9719 54.0841 23.6099ZM52.8531 43.4827C50.0393 40.6689 48.6323 37.1516 48.6323 33.1067C48.6323 29.0618 50.0393 25.5444 52.8531 22.7306C55.6669 19.9168 59.1843 18.5098 63.2292 18.5098C67.2741 18.5098 70.7914 19.9168 73.6052 22.7306C76.4191 25.5444 77.826 29.0618 77.826 33.1067C77.826 37.1516 76.4191 40.6689 73.6052 43.4827C70.7914 46.2966 67.2741 47.7035 63.2292 47.7035C59.1843 47.7035 55.6669 46.2966 52.8531 43.4827Z" fill="#262727"/>
<path d="M86.6192 32.9308V45.769H96.6435C98.7539 45.769 100.513 45.0655 101.919 43.8345C103.326 42.6034 104.03 41.0206 104.03 39.262C104.03 37.5033 103.326 35.9205 101.919 34.6895C100.513 33.4584 98.7539 32.7549 96.6435 32.7549H86.6192V32.9308ZM86.6192 20.0926V31.5239H95.94C97.8746 31.5239 99.4573 30.9963 100.688 29.9411C101.919 28.8859 102.447 27.479 102.447 25.8962C102.447 24.3134 101.744 22.9065 100.688 21.8513C99.4573 20.7961 97.8746 20.2685 95.94 20.2685H86.6192V20.0926ZM85.0364 18.6857H96.1159C98.578 18.6857 100.513 19.3892 101.919 20.6202C103.326 22.0271 104.206 23.6099 104.206 25.5445C104.206 27.479 103.854 28.3583 102.975 29.5894C102.095 30.8204 101.04 31.6997 99.6332 32.2273C101.568 32.5791 102.975 33.4584 104.03 34.8653C105.085 36.2722 105.789 37.855 105.789 39.6137C105.789 41.3723 104.909 43.6586 103.326 45.0655C101.568 46.4724 99.4574 47.3518 96.8194 47.3518H85.2123V18.6857H85.0364Z" fill="#262727"/>
<path d="M124.43 20.0926H114.758V33.986H124.43C126.717 33.986 128.651 33.2825 130.058 32.0515C131.465 30.8204 132.168 29.0618 132.168 27.1272C132.168 25.1927 131.465 23.4341 130.058 22.203C128.651 20.972 126.717 20.2685 124.43 20.2685M113.175 47.3518V18.6857H124.606C127.244 18.6857 129.53 19.565 131.113 20.972C132.872 22.5547 133.575 24.4893 133.575 26.9514C133.575 29.4135 132.872 30.9963 131.465 32.4032C130.058 33.8101 128.124 34.8653 125.837 35.217L134.806 47.1759H132.696L123.727 35.3929H114.406V47.1759H112.823L113.175 47.3518Z" fill="#262727"/>
<path d="M150.459 20.4444L143.424 36.624H157.493L150.459 20.4444ZM137.093 47.3518L149.755 18.8616H151.338L164 47.3518H162.242L158.197 38.0309H142.896L138.851 47.3518H137.093Z" fill="#262727"/>
</svg>
